<mxfile host="app.diagrams.net" agent="Mozilla/5.0 (Windows NT 10.0; Win64; x64) AppleWebKit/537.36 (KHTML, like Gecko) Chrome/130.0.0.0 Safari/537.36" version="24.8.3">
  <diagram id="C5RBs43oDa-KdzZeNtuy" name="Page-1">
    <mxGraphModel dx="2120" dy="2409" grid="1" gridSize="10" guides="1" tooltips="1" connect="1" arrows="1" fold="1" page="1" pageScale="1" pageWidth="827" pageHeight="1169" math="0" shadow="0">
      <root>
        <mxCell id="WIyWlLk6GJQsqaUBKTNV-0" />
        <mxCell id="WIyWlLk6GJQsqaUBKTNV-1" parent="WIyWlLk6GJQsqaUBKTNV-0" />
        <mxCell id="Iu2t4UbbvrASHuQMiMNW-21" style="edgeStyle=orthogonalEdgeStyle;shape=connector;rounded=0;orthogonalLoop=1;jettySize=auto;html=1;exitX=0;exitY=0.5;exitDx=0;exitDy=0;strokeColor=default;align=center;verticalAlign=middle;fontFamily=Helvetica;fontSize=11;fontColor=default;labelBackgroundColor=default;endArrow=none;endFill=0;" edge="1" parent="WIyWlLk6GJQsqaUBKTNV-1" source="Iu2t4UbbvrASHuQMiMNW-0">
          <mxGeometry relative="1" as="geometry">
            <mxPoint x="170" y="340" as="targetPoint" />
          </mxGeometry>
        </mxCell>
        <mxCell id="Iu2t4UbbvrASHuQMiMNW-22" style="edgeStyle=orthogonalEdgeStyle;shape=connector;rounded=0;orthogonalLoop=1;jettySize=auto;html=1;exitX=1;exitY=0.5;exitDx=0;exitDy=0;entryX=0;entryY=0.5;entryDx=0;entryDy=0;strokeColor=default;align=center;verticalAlign=middle;fontFamily=Helvetica;fontSize=11;fontColor=default;labelBackgroundColor=default;endArrow=none;endFill=0;startArrow=ERmandOne;startFill=0;" edge="1" parent="WIyWlLk6GJQsqaUBKTNV-1" source="Iu2t4UbbvrASHuQMiMNW-0" target="Iu2t4UbbvrASHuQMiMNW-15">
          <mxGeometry relative="1" as="geometry">
            <Array as="points">
              <mxPoint x="400" y="340" />
              <mxPoint x="400" y="315" />
            </Array>
          </mxGeometry>
        </mxCell>
        <mxCell id="Iu2t4UbbvrASHuQMiMNW-82" style="edgeStyle=orthogonalEdgeStyle;shape=connector;rounded=0;orthogonalLoop=1;jettySize=auto;html=1;strokeColor=default;align=center;verticalAlign=middle;fontFamily=Helvetica;fontSize=11;fontColor=default;labelBackgroundColor=default;endArrow=none;endFill=0;entryX=0;entryY=0.5;entryDx=0;entryDy=0;startArrow=ERoneToMany;startFill=0;" edge="1" parent="WIyWlLk6GJQsqaUBKTNV-1" source="Iu2t4UbbvrASHuQMiMNW-0" target="Iu2t4UbbvrASHuQMiMNW-81">
          <mxGeometry relative="1" as="geometry">
            <mxPoint x="290" y="510" as="targetPoint" />
            <Array as="points">
              <mxPoint x="290" y="510" />
            </Array>
          </mxGeometry>
        </mxCell>
        <mxCell id="Iu2t4UbbvrASHuQMiMNW-0" value="&lt;font style=&quot;font-size: 21px;&quot;&gt;User&lt;/font&gt;" style="rounded=0;whiteSpace=wrap;html=1;" vertex="1" parent="WIyWlLk6GJQsqaUBKTNV-1">
          <mxGeometry x="230" y="310" width="120" height="60" as="geometry" />
        </mxCell>
        <mxCell id="Iu2t4UbbvrASHuQMiMNW-89" style="edgeStyle=orthogonalEdgeStyle;shape=connector;rounded=0;orthogonalLoop=1;jettySize=auto;html=1;exitX=1;exitY=0.5;exitDx=0;exitDy=0;strokeColor=default;align=center;verticalAlign=middle;fontFamily=Helvetica;fontSize=11;fontColor=default;labelBackgroundColor=default;endArrow=none;endFill=0;" edge="1" parent="WIyWlLk6GJQsqaUBKTNV-1" source="Iu2t4UbbvrASHuQMiMNW-1">
          <mxGeometry relative="1" as="geometry">
            <mxPoint x="200" y="340.0000000000002" as="targetPoint" />
          </mxGeometry>
        </mxCell>
        <mxCell id="Iu2t4UbbvrASHuQMiMNW-1" value="PK: UserID" style="ellipse;whiteSpace=wrap;html=1;" vertex="1" parent="WIyWlLk6GJQsqaUBKTNV-1">
          <mxGeometry x="40" y="70" width="110" height="60" as="geometry" />
        </mxCell>
        <mxCell id="Iu2t4UbbvrASHuQMiMNW-93" style="edgeStyle=orthogonalEdgeStyle;shape=connector;rounded=0;orthogonalLoop=1;jettySize=auto;html=1;exitX=1;exitY=0.5;exitDx=0;exitDy=0;strokeColor=default;align=center;verticalAlign=middle;fontFamily=Helvetica;fontSize=11;fontColor=default;labelBackgroundColor=default;endArrow=none;endFill=0;" edge="1" parent="WIyWlLk6GJQsqaUBKTNV-1" source="Iu2t4UbbvrASHuQMiMNW-2">
          <mxGeometry relative="1" as="geometry">
            <mxPoint x="200" y="420.0476190476188" as="targetPoint" />
          </mxGeometry>
        </mxCell>
        <mxCell id="Iu2t4UbbvrASHuQMiMNW-2" value="List of friends" style="ellipse;whiteSpace=wrap;html=1;" vertex="1" parent="WIyWlLk6GJQsqaUBKTNV-1">
          <mxGeometry x="40" y="390" width="110" height="60" as="geometry" />
        </mxCell>
        <mxCell id="Iu2t4UbbvrASHuQMiMNW-92" style="edgeStyle=orthogonalEdgeStyle;shape=connector;rounded=0;orthogonalLoop=1;jettySize=auto;html=1;exitX=1;exitY=0.5;exitDx=0;exitDy=0;strokeColor=default;align=center;verticalAlign=middle;fontFamily=Helvetica;fontSize=11;fontColor=default;labelBackgroundColor=default;endArrow=none;endFill=0;" edge="1" parent="WIyWlLk6GJQsqaUBKTNV-1" source="Iu2t4UbbvrASHuQMiMNW-3">
          <mxGeometry relative="1" as="geometry">
            <mxPoint x="170" y="340.04761904761904" as="targetPoint" />
          </mxGeometry>
        </mxCell>
        <mxCell id="Iu2t4UbbvrASHuQMiMNW-3" value="Password" style="ellipse;whiteSpace=wrap;html=1;" vertex="1" parent="WIyWlLk6GJQsqaUBKTNV-1">
          <mxGeometry x="40" y="310" width="110" height="60" as="geometry" />
        </mxCell>
        <mxCell id="Iu2t4UbbvrASHuQMiMNW-91" style="edgeStyle=orthogonalEdgeStyle;shape=connector;rounded=0;orthogonalLoop=1;jettySize=auto;html=1;exitX=1;exitY=0.5;exitDx=0;exitDy=0;strokeColor=default;align=center;verticalAlign=middle;fontFamily=Helvetica;fontSize=11;fontColor=default;labelBackgroundColor=default;endArrow=none;endFill=0;" edge="1" parent="WIyWlLk6GJQsqaUBKTNV-1" source="Iu2t4UbbvrASHuQMiMNW-4">
          <mxGeometry relative="1" as="geometry">
            <mxPoint x="200" y="260.04761904761904" as="targetPoint" />
          </mxGeometry>
        </mxCell>
        <mxCell id="Iu2t4UbbvrASHuQMiMNW-4" value="Email" style="ellipse;whiteSpace=wrap;html=1;" vertex="1" parent="WIyWlLk6GJQsqaUBKTNV-1">
          <mxGeometry x="40" y="230" width="110" height="60" as="geometry" />
        </mxCell>
        <mxCell id="Iu2t4UbbvrASHuQMiMNW-90" style="edgeStyle=orthogonalEdgeStyle;shape=connector;rounded=0;orthogonalLoop=1;jettySize=auto;html=1;exitX=1;exitY=0.5;exitDx=0;exitDy=0;strokeColor=default;align=center;verticalAlign=middle;fontFamily=Helvetica;fontSize=11;fontColor=default;labelBackgroundColor=default;endArrow=none;endFill=0;" edge="1" parent="WIyWlLk6GJQsqaUBKTNV-1" source="Iu2t4UbbvrASHuQMiMNW-5">
          <mxGeometry relative="1" as="geometry">
            <mxPoint x="200" y="180.04761904761904" as="targetPoint" />
          </mxGeometry>
        </mxCell>
        <mxCell id="Iu2t4UbbvrASHuQMiMNW-5" value="Username" style="ellipse;whiteSpace=wrap;html=1;" vertex="1" parent="WIyWlLk6GJQsqaUBKTNV-1">
          <mxGeometry x="40" y="150" width="110" height="60" as="geometry" />
        </mxCell>
        <mxCell id="Iu2t4UbbvrASHuQMiMNW-94" style="edgeStyle=orthogonalEdgeStyle;shape=connector;rounded=0;orthogonalLoop=1;jettySize=auto;html=1;exitX=1;exitY=0.5;exitDx=0;exitDy=0;strokeColor=default;align=center;verticalAlign=middle;fontFamily=Helvetica;fontSize=11;fontColor=default;labelBackgroundColor=default;endArrow=none;endFill=0;" edge="1" parent="WIyWlLk6GJQsqaUBKTNV-1" source="Iu2t4UbbvrASHuQMiMNW-7">
          <mxGeometry relative="1" as="geometry">
            <mxPoint x="200" y="500.0476190476188" as="targetPoint" />
          </mxGeometry>
        </mxCell>
        <mxCell id="Iu2t4UbbvrASHuQMiMNW-7" value="Profile picture" style="ellipse;whiteSpace=wrap;html=1;" vertex="1" parent="WIyWlLk6GJQsqaUBKTNV-1">
          <mxGeometry x="40" y="470" width="110" height="60" as="geometry" />
        </mxCell>
        <mxCell id="Iu2t4UbbvrASHuQMiMNW-24" style="edgeStyle=orthogonalEdgeStyle;shape=connector;rounded=0;orthogonalLoop=1;jettySize=auto;html=1;entryX=0;entryY=0.5;entryDx=0;entryDy=0;strokeColor=default;align=center;verticalAlign=middle;fontFamily=Helvetica;fontSize=11;fontColor=default;labelBackgroundColor=default;endArrow=ERmandOne;endFill=0;" edge="1" parent="WIyWlLk6GJQsqaUBKTNV-1" source="Iu2t4UbbvrASHuQMiMNW-15" target="Iu2t4UbbvrASHuQMiMNW-23">
          <mxGeometry relative="1" as="geometry">
            <Array as="points">
              <mxPoint x="590" y="315" />
              <mxPoint x="590" y="340" />
            </Array>
          </mxGeometry>
        </mxCell>
        <mxCell id="Iu2t4UbbvrASHuQMiMNW-15" value="&lt;font style=&quot;font-size: 19px;&quot;&gt;Makes&lt;/font&gt;" style="rhombus;whiteSpace=wrap;html=1;fontFamily=Helvetica;fontSize=11;fontColor=default;labelBackgroundColor=default;" vertex="1" parent="WIyWlLk6GJQsqaUBKTNV-1">
          <mxGeometry x="440" y="275" width="110" height="80" as="geometry" />
        </mxCell>
        <mxCell id="Iu2t4UbbvrASHuQMiMNW-95" style="edgeStyle=orthogonalEdgeStyle;shape=connector;rounded=0;orthogonalLoop=1;jettySize=auto;html=1;exitX=1;exitY=0.5;exitDx=0;exitDy=0;strokeColor=default;align=center;verticalAlign=middle;fontFamily=Helvetica;fontSize=11;fontColor=default;labelBackgroundColor=default;endArrow=none;endFill=0;" edge="1" parent="WIyWlLk6GJQsqaUBKTNV-1" source="Iu2t4UbbvrASHuQMiMNW-16">
          <mxGeometry relative="1" as="geometry">
            <mxPoint x="200" y="569.5714285714284" as="targetPoint" />
          </mxGeometry>
        </mxCell>
        <mxCell id="Iu2t4UbbvrASHuQMiMNW-16" value="CreatedAt" style="ellipse;whiteSpace=wrap;html=1;" vertex="1" parent="WIyWlLk6GJQsqaUBKTNV-1">
          <mxGeometry x="40" y="540" width="110" height="60" as="geometry" />
        </mxCell>
        <mxCell id="Iu2t4UbbvrASHuQMiMNW-88" style="edgeStyle=orthogonalEdgeStyle;shape=connector;rounded=0;orthogonalLoop=1;jettySize=auto;html=1;exitX=1;exitY=0.5;exitDx=0;exitDy=0;strokeColor=default;align=center;verticalAlign=middle;fontFamily=Helvetica;fontSize=11;fontColor=default;labelBackgroundColor=default;endArrow=none;endFill=0;" edge="1" parent="WIyWlLk6GJQsqaUBKTNV-1" source="Iu2t4UbbvrASHuQMiMNW-17">
          <mxGeometry relative="1" as="geometry">
            <mxPoint x="200" y="340.0000000000002" as="targetPoint" />
          </mxGeometry>
        </mxCell>
        <mxCell id="Iu2t4UbbvrASHuQMiMNW-17" value="UpdatedAt" style="ellipse;whiteSpace=wrap;html=1;" vertex="1" parent="WIyWlLk6GJQsqaUBKTNV-1">
          <mxGeometry x="40" y="620" width="110" height="60" as="geometry" />
        </mxCell>
        <mxCell id="Iu2t4UbbvrASHuQMiMNW-23" value="&lt;font style=&quot;font-size: 21px;&quot;&gt;Call&lt;/font&gt;" style="rounded=0;whiteSpace=wrap;html=1;" vertex="1" parent="WIyWlLk6GJQsqaUBKTNV-1">
          <mxGeometry x="640" y="310" width="120" height="60" as="geometry" />
        </mxCell>
        <mxCell id="Iu2t4UbbvrASHuQMiMNW-37" style="edgeStyle=orthogonalEdgeStyle;shape=connector;rounded=0;orthogonalLoop=1;jettySize=auto;html=1;exitX=1;exitY=0.5;exitDx=0;exitDy=0;strokeColor=default;align=center;verticalAlign=middle;fontFamily=Helvetica;fontSize=11;fontColor=default;labelBackgroundColor=default;endArrow=none;endFill=0;" edge="1" parent="WIyWlLk6GJQsqaUBKTNV-1" source="Iu2t4UbbvrASHuQMiMNW-25">
          <mxGeometry relative="1" as="geometry">
            <mxPoint x="700" y="100" as="targetPoint" />
          </mxGeometry>
        </mxCell>
        <mxCell id="Iu2t4UbbvrASHuQMiMNW-25" value="FK to UserID: ReceiverID" style="ellipse;whiteSpace=wrap;html=1;" vertex="1" parent="WIyWlLk6GJQsqaUBKTNV-1">
          <mxGeometry x="530" y="70" width="110" height="60" as="geometry" />
        </mxCell>
        <mxCell id="Iu2t4UbbvrASHuQMiMNW-36" style="edgeStyle=orthogonalEdgeStyle;shape=connector;rounded=0;orthogonalLoop=1;jettySize=auto;html=1;exitX=1;exitY=0.5;exitDx=0;exitDy=0;strokeColor=default;align=center;verticalAlign=middle;fontFamily=Helvetica;fontSize=11;fontColor=default;labelBackgroundColor=default;endArrow=none;endFill=0;" edge="1" parent="WIyWlLk6GJQsqaUBKTNV-1" source="Iu2t4UbbvrASHuQMiMNW-26">
          <mxGeometry relative="1" as="geometry">
            <mxPoint x="700" y="20" as="targetPoint" />
          </mxGeometry>
        </mxCell>
        <mxCell id="Iu2t4UbbvrASHuQMiMNW-26" value="FK to UserID: CallerID" style="ellipse;whiteSpace=wrap;html=1;" vertex="1" parent="WIyWlLk6GJQsqaUBKTNV-1">
          <mxGeometry x="530" y="-10" width="110" height="60" as="geometry" />
        </mxCell>
        <mxCell id="Iu2t4UbbvrASHuQMiMNW-33" style="edgeStyle=orthogonalEdgeStyle;shape=connector;rounded=0;orthogonalLoop=1;jettySize=auto;html=1;exitX=1;exitY=0.5;exitDx=0;exitDy=0;entryX=0.5;entryY=0;entryDx=0;entryDy=0;strokeColor=default;align=center;verticalAlign=middle;fontFamily=Helvetica;fontSize=11;fontColor=default;labelBackgroundColor=default;endArrow=none;endFill=0;" edge="1" parent="WIyWlLk6GJQsqaUBKTNV-1" source="Iu2t4UbbvrASHuQMiMNW-27" target="Iu2t4UbbvrASHuQMiMNW-23">
          <mxGeometry relative="1" as="geometry" />
        </mxCell>
        <mxCell id="Iu2t4UbbvrASHuQMiMNW-27" value="PK: CallID" style="ellipse;whiteSpace=wrap;html=1;" vertex="1" parent="WIyWlLk6GJQsqaUBKTNV-1">
          <mxGeometry x="530" y="-90" width="110" height="60" as="geometry" />
        </mxCell>
        <mxCell id="Iu2t4UbbvrASHuQMiMNW-38" style="edgeStyle=orthogonalEdgeStyle;shape=connector;rounded=0;orthogonalLoop=1;jettySize=auto;html=1;exitX=0;exitY=0.5;exitDx=0;exitDy=0;strokeColor=default;align=center;verticalAlign=middle;fontFamily=Helvetica;fontSize=11;fontColor=default;labelBackgroundColor=default;endArrow=none;endFill=0;" edge="1" parent="WIyWlLk6GJQsqaUBKTNV-1" source="Iu2t4UbbvrASHuQMiMNW-28">
          <mxGeometry relative="1" as="geometry">
            <mxPoint x="700" y="100" as="targetPoint" />
          </mxGeometry>
        </mxCell>
        <mxCell id="Iu2t4UbbvrASHuQMiMNW-28" value="CallEndTime" style="ellipse;whiteSpace=wrap;html=1;" vertex="1" parent="WIyWlLk6GJQsqaUBKTNV-1">
          <mxGeometry x="760" y="70" width="110" height="60" as="geometry" />
        </mxCell>
        <mxCell id="Iu2t4UbbvrASHuQMiMNW-35" style="edgeStyle=orthogonalEdgeStyle;shape=connector;rounded=0;orthogonalLoop=1;jettySize=auto;html=1;exitX=0;exitY=0.5;exitDx=0;exitDy=0;strokeColor=default;align=center;verticalAlign=middle;fontFamily=Helvetica;fontSize=11;fontColor=default;labelBackgroundColor=default;endArrow=none;endFill=0;" edge="1" parent="WIyWlLk6GJQsqaUBKTNV-1" source="Iu2t4UbbvrASHuQMiMNW-29">
          <mxGeometry relative="1" as="geometry">
            <mxPoint x="700" y="20" as="targetPoint" />
          </mxGeometry>
        </mxCell>
        <mxCell id="Iu2t4UbbvrASHuQMiMNW-29" value="CallStartTime" style="ellipse;whiteSpace=wrap;html=1;" vertex="1" parent="WIyWlLk6GJQsqaUBKTNV-1">
          <mxGeometry x="760" y="-10" width="110" height="60" as="geometry" />
        </mxCell>
        <mxCell id="Iu2t4UbbvrASHuQMiMNW-34" style="edgeStyle=orthogonalEdgeStyle;shape=connector;rounded=0;orthogonalLoop=1;jettySize=auto;html=1;exitX=0;exitY=0.5;exitDx=0;exitDy=0;strokeColor=default;align=center;verticalAlign=middle;fontFamily=Helvetica;fontSize=11;fontColor=default;labelBackgroundColor=default;endArrow=none;endFill=0;" edge="1" parent="WIyWlLk6GJQsqaUBKTNV-1" source="Iu2t4UbbvrASHuQMiMNW-30">
          <mxGeometry relative="1" as="geometry">
            <mxPoint x="700" y="-60" as="targetPoint" />
          </mxGeometry>
        </mxCell>
        <mxCell id="Iu2t4UbbvrASHuQMiMNW-30" value="CallType" style="ellipse;whiteSpace=wrap;html=1;" vertex="1" parent="WIyWlLk6GJQsqaUBKTNV-1">
          <mxGeometry x="760" y="-90" width="110" height="60" as="geometry" />
        </mxCell>
        <mxCell id="Iu2t4UbbvrASHuQMiMNW-39" style="edgeStyle=orthogonalEdgeStyle;shape=connector;rounded=0;orthogonalLoop=1;jettySize=auto;html=1;exitX=1;exitY=0.5;exitDx=0;exitDy=0;strokeColor=default;align=center;verticalAlign=middle;fontFamily=Helvetica;fontSize=11;fontColor=default;labelBackgroundColor=default;endArrow=none;endFill=0;" edge="1" parent="WIyWlLk6GJQsqaUBKTNV-1" source="Iu2t4UbbvrASHuQMiMNW-31">
          <mxGeometry relative="1" as="geometry">
            <mxPoint x="700" y="180" as="targetPoint" />
          </mxGeometry>
        </mxCell>
        <mxCell id="Iu2t4UbbvrASHuQMiMNW-31" value="FK to GroupID:&lt;br&gt;GroupCallerID" style="ellipse;whiteSpace=wrap;html=1;" vertex="1" parent="WIyWlLk6GJQsqaUBKTNV-1">
          <mxGeometry x="530" y="150" width="110" height="60" as="geometry" />
        </mxCell>
        <mxCell id="Iu2t4UbbvrASHuQMiMNW-40" style="edgeStyle=orthogonalEdgeStyle;shape=connector;rounded=0;orthogonalLoop=1;jettySize=auto;html=1;exitX=0;exitY=0.5;exitDx=0;exitDy=0;strokeColor=default;align=center;verticalAlign=middle;fontFamily=Helvetica;fontSize=11;fontColor=default;labelBackgroundColor=default;endArrow=none;endFill=0;" edge="1" parent="WIyWlLk6GJQsqaUBKTNV-1" source="Iu2t4UbbvrASHuQMiMNW-32">
          <mxGeometry relative="1" as="geometry">
            <mxPoint x="700" y="180" as="targetPoint" />
          </mxGeometry>
        </mxCell>
        <mxCell id="Iu2t4UbbvrASHuQMiMNW-32" value="Status" style="ellipse;whiteSpace=wrap;html=1;" vertex="1" parent="WIyWlLk6GJQsqaUBKTNV-1">
          <mxGeometry x="760" y="150" width="110" height="60" as="geometry" />
        </mxCell>
        <mxCell id="Iu2t4UbbvrASHuQMiMNW-41" value="&lt;font style=&quot;font-size: 21px;&quot;&gt;Group&lt;/font&gt;" style="rounded=0;whiteSpace=wrap;html=1;" vertex="1" parent="WIyWlLk6GJQsqaUBKTNV-1">
          <mxGeometry x="640" y="480" width="120" height="60" as="geometry" />
        </mxCell>
        <mxCell id="Iu2t4UbbvrASHuQMiMNW-50" style="edgeStyle=orthogonalEdgeStyle;shape=connector;rounded=0;orthogonalLoop=1;jettySize=auto;html=1;strokeColor=default;align=center;verticalAlign=middle;fontFamily=Helvetica;fontSize=11;fontColor=default;labelBackgroundColor=default;endArrow=none;endFill=0;" edge="1" parent="WIyWlLk6GJQsqaUBKTNV-1" source="Iu2t4UbbvrASHuQMiMNW-44">
          <mxGeometry relative="1" as="geometry">
            <mxPoint x="800" y="510" as="targetPoint" />
          </mxGeometry>
        </mxCell>
        <mxCell id="Iu2t4UbbvrASHuQMiMNW-44" value="GroupID&lt;span style=&quot;color: rgba(0, 0, 0, 0); font-family: monospace; font-size: 0px; text-align: start; text-wrap-mode: nowrap;&quot;&gt;%3CmxGraphModel%3E%3Croot%3E%3CmxCell%20id%3D%220%22%2F%3E%3CmxCell%20id%3D%221%22%20parent%3D%220%22%2F%3E%3CmxCell%20id%3D%222%22%20value%3D%22CallDuration%22%20style%3D%22ellipse%3BwhiteSpace%3Dwrap%3Bhtml%3D1%3B%22%20vertex%3D%221%22%20parent%3D%221%22%3E%3CmxGeometry%20x%3D%22760%22%20y%3D%22150%22%20width%3D%22110%22%20height%3D%2260%22%20as%3D%22geometry%22%2F%3E%3C%2FmxCell%3E%3C%2Froot%3E%3C%2FmxGraphModel%3E&lt;/span&gt;" style="ellipse;whiteSpace=wrap;html=1;" vertex="1" parent="WIyWlLk6GJQsqaUBKTNV-1">
          <mxGeometry x="827" y="320" width="110" height="60" as="geometry" />
        </mxCell>
        <mxCell id="Iu2t4UbbvrASHuQMiMNW-51" style="edgeStyle=orthogonalEdgeStyle;shape=connector;rounded=0;orthogonalLoop=1;jettySize=auto;html=1;exitX=0;exitY=0.5;exitDx=0;exitDy=0;strokeColor=default;align=center;verticalAlign=middle;fontFamily=Helvetica;fontSize=11;fontColor=default;labelBackgroundColor=default;endArrow=none;endFill=0;" edge="1" parent="WIyWlLk6GJQsqaUBKTNV-1" source="Iu2t4UbbvrASHuQMiMNW-45">
          <mxGeometry relative="1" as="geometry">
            <mxPoint x="810" y="430" as="targetPoint" />
          </mxGeometry>
        </mxCell>
        <mxCell id="Iu2t4UbbvrASHuQMiMNW-87" style="edgeStyle=orthogonalEdgeStyle;shape=connector;rounded=0;orthogonalLoop=1;jettySize=auto;html=1;strokeColor=default;align=center;verticalAlign=middle;fontFamily=Helvetica;fontSize=11;fontColor=default;labelBackgroundColor=default;endArrow=none;endFill=0;" edge="1" parent="WIyWlLk6GJQsqaUBKTNV-1" source="Iu2t4UbbvrASHuQMiMNW-45">
          <mxGeometry relative="1" as="geometry">
            <mxPoint x="800" y="430" as="targetPoint" />
          </mxGeometry>
        </mxCell>
        <mxCell id="Iu2t4UbbvrASHuQMiMNW-45" value="GroupName" style="ellipse;whiteSpace=wrap;html=1;" vertex="1" parent="WIyWlLk6GJQsqaUBKTNV-1">
          <mxGeometry x="827" y="400" width="110" height="60" as="geometry" />
        </mxCell>
        <mxCell id="Iu2t4UbbvrASHuQMiMNW-52" style="edgeStyle=orthogonalEdgeStyle;shape=connector;rounded=0;orthogonalLoop=1;jettySize=auto;html=1;exitX=0;exitY=0.5;exitDx=0;exitDy=0;strokeColor=default;align=center;verticalAlign=middle;fontFamily=Helvetica;fontSize=11;fontColor=default;labelBackgroundColor=default;endArrow=none;endFill=0;" edge="1" parent="WIyWlLk6GJQsqaUBKTNV-1" source="Iu2t4UbbvrASHuQMiMNW-46">
          <mxGeometry relative="1" as="geometry">
            <mxPoint x="800" y="510" as="targetPoint" />
          </mxGeometry>
        </mxCell>
        <mxCell id="Iu2t4UbbvrASHuQMiMNW-46" value="CreatedAt" style="ellipse;whiteSpace=wrap;html=1;" vertex="1" parent="WIyWlLk6GJQsqaUBKTNV-1">
          <mxGeometry x="827" y="560" width="110" height="60" as="geometry" />
        </mxCell>
        <mxCell id="Iu2t4UbbvrASHuQMiMNW-53" style="edgeStyle=orthogonalEdgeStyle;shape=connector;rounded=0;orthogonalLoop=1;jettySize=auto;html=1;exitX=0;exitY=0.5;exitDx=0;exitDy=0;strokeColor=default;align=center;verticalAlign=middle;fontFamily=Helvetica;fontSize=11;fontColor=default;labelBackgroundColor=default;endArrow=none;endFill=0;" edge="1" parent="WIyWlLk6GJQsqaUBKTNV-1" source="Iu2t4UbbvrASHuQMiMNW-47">
          <mxGeometry relative="1" as="geometry">
            <mxPoint x="800" y="590" as="targetPoint" />
          </mxGeometry>
        </mxCell>
        <mxCell id="Iu2t4UbbvrASHuQMiMNW-47" value="UpdatedAt" style="ellipse;whiteSpace=wrap;html=1;" vertex="1" parent="WIyWlLk6GJQsqaUBKTNV-1">
          <mxGeometry x="827" y="640" width="110" height="60" as="geometry" />
        </mxCell>
        <mxCell id="Iu2t4UbbvrASHuQMiMNW-49" style="edgeStyle=orthogonalEdgeStyle;shape=connector;rounded=0;orthogonalLoop=1;jettySize=auto;html=1;entryX=1;entryY=0.5;entryDx=0;entryDy=0;strokeColor=default;align=center;verticalAlign=middle;fontFamily=Helvetica;fontSize=11;fontColor=default;labelBackgroundColor=default;endArrow=none;endFill=0;" edge="1" parent="WIyWlLk6GJQsqaUBKTNV-1" source="Iu2t4UbbvrASHuQMiMNW-48" target="Iu2t4UbbvrASHuQMiMNW-41">
          <mxGeometry relative="1" as="geometry" />
        </mxCell>
        <mxCell id="Iu2t4UbbvrASHuQMiMNW-48" value="CreatedBy" style="ellipse;whiteSpace=wrap;html=1;" vertex="1" parent="WIyWlLk6GJQsqaUBKTNV-1">
          <mxGeometry x="827" y="480" width="110" height="60" as="geometry" />
        </mxCell>
        <mxCell id="Iu2t4UbbvrASHuQMiMNW-57" style="edgeStyle=orthogonalEdgeStyle;shape=connector;rounded=0;orthogonalLoop=1;jettySize=auto;html=1;strokeColor=default;align=center;verticalAlign=middle;fontFamily=Helvetica;fontSize=11;fontColor=default;labelBackgroundColor=default;endArrow=none;endFill=0;" edge="1" parent="WIyWlLk6GJQsqaUBKTNV-1" source="Iu2t4UbbvrASHuQMiMNW-54">
          <mxGeometry relative="1" as="geometry">
            <mxPoint x="700" y="260" as="targetPoint" />
          </mxGeometry>
        </mxCell>
        <mxCell id="Iu2t4UbbvrASHuQMiMNW-54" value="FK to GroupID:&lt;div&gt;GroupReceiverID&lt;/div&gt;" style="ellipse;whiteSpace=wrap;html=1;" vertex="1" parent="WIyWlLk6GJQsqaUBKTNV-1">
          <mxGeometry x="530" y="230" width="110" height="60" as="geometry" />
        </mxCell>
        <mxCell id="Iu2t4UbbvrASHuQMiMNW-56" style="edgeStyle=orthogonalEdgeStyle;shape=connector;rounded=0;orthogonalLoop=1;jettySize=auto;html=1;strokeColor=default;align=center;verticalAlign=middle;fontFamily=Helvetica;fontSize=11;fontColor=default;labelBackgroundColor=default;endArrow=none;endFill=0;" edge="1" parent="WIyWlLk6GJQsqaUBKTNV-1" source="Iu2t4UbbvrASHuQMiMNW-55">
          <mxGeometry relative="1" as="geometry">
            <mxPoint x="700" y="260" as="targetPoint" />
          </mxGeometry>
        </mxCell>
        <mxCell id="Iu2t4UbbvrASHuQMiMNW-55" value="CallDuration" style="ellipse;whiteSpace=wrap;html=1;" vertex="1" parent="WIyWlLk6GJQsqaUBKTNV-1">
          <mxGeometry x="760" y="230" width="110" height="60" as="geometry" />
        </mxCell>
        <mxCell id="Iu2t4UbbvrASHuQMiMNW-59" style="edgeStyle=orthogonalEdgeStyle;shape=connector;rounded=0;orthogonalLoop=1;jettySize=auto;html=1;exitX=0.5;exitY=0;exitDx=0;exitDy=0;entryX=0.5;entryY=1;entryDx=0;entryDy=0;strokeColor=default;align=center;verticalAlign=middle;fontFamily=Helvetica;fontSize=11;fontColor=default;labelBackgroundColor=default;endArrow=none;endFill=0;" edge="1" parent="WIyWlLk6GJQsqaUBKTNV-1" source="Iu2t4UbbvrASHuQMiMNW-58" target="Iu2t4UbbvrASHuQMiMNW-41">
          <mxGeometry relative="1" as="geometry" />
        </mxCell>
        <mxCell id="Iu2t4UbbvrASHuQMiMNW-58" value="&lt;font style=&quot;font-size: 21px;&quot;&gt;Has&lt;/font&gt;" style="rhombus;whiteSpace=wrap;html=1;fontFamily=Helvetica;fontSize=11;fontColor=default;labelBackgroundColor=default;" vertex="1" parent="WIyWlLk6GJQsqaUBKTNV-1">
          <mxGeometry x="645" y="620" width="110" height="80" as="geometry" />
        </mxCell>
        <mxCell id="Iu2t4UbbvrASHuQMiMNW-76" style="edgeStyle=orthogonalEdgeStyle;rounded=0;orthogonalLoop=1;jettySize=auto;html=1;entryX=0.5;entryY=1;entryDx=0;entryDy=0;strokeColor=default;align=center;verticalAlign=middle;fontFamily=Helvetica;fontSize=11;fontColor=default;labelBackgroundColor=default;endArrow=none;endFill=0;startArrow=ERmandOne;startFill=0;" edge="1" parent="WIyWlLk6GJQsqaUBKTNV-1" source="Iu2t4UbbvrASHuQMiMNW-60" target="Iu2t4UbbvrASHuQMiMNW-58">
          <mxGeometry relative="1" as="geometry" />
        </mxCell>
        <mxCell id="Iu2t4UbbvrASHuQMiMNW-60" value="&lt;font style=&quot;font-size: 21px;&quot;&gt;GroupMembers&lt;/font&gt;" style="rounded=0;whiteSpace=wrap;html=1;" vertex="1" parent="WIyWlLk6GJQsqaUBKTNV-1">
          <mxGeometry x="610" y="790" width="180" height="60" as="geometry" />
        </mxCell>
        <mxCell id="Iu2t4UbbvrASHuQMiMNW-75" style="edgeStyle=orthogonalEdgeStyle;shape=connector;rounded=0;orthogonalLoop=1;jettySize=auto;html=1;strokeColor=default;align=center;verticalAlign=middle;fontFamily=Helvetica;fontSize=11;fontColor=default;labelBackgroundColor=default;endArrow=none;endFill=0;" edge="1" parent="WIyWlLk6GJQsqaUBKTNV-1" source="Iu2t4UbbvrASHuQMiMNW-62">
          <mxGeometry relative="1" as="geometry">
            <mxPoint x="630" y="900" as="targetPoint" />
            <Array as="points">
              <mxPoint x="475" y="900" />
            </Array>
          </mxGeometry>
        </mxCell>
        <mxCell id="Iu2t4UbbvrASHuQMiMNW-62" value="PK: GroupMemberID" style="ellipse;whiteSpace=wrap;html=1;" vertex="1" parent="WIyWlLk6GJQsqaUBKTNV-1">
          <mxGeometry x="420" y="920" width="110" height="60" as="geometry" />
        </mxCell>
        <mxCell id="Iu2t4UbbvrASHuQMiMNW-72" style="edgeStyle=orthogonalEdgeStyle;shape=connector;rounded=0;orthogonalLoop=1;jettySize=auto;html=1;strokeColor=default;align=center;verticalAlign=middle;fontFamily=Helvetica;fontSize=11;fontColor=default;labelBackgroundColor=default;endArrow=none;endFill=0;entryX=0.5;entryY=1;entryDx=0;entryDy=0;" edge="1" parent="WIyWlLk6GJQsqaUBKTNV-1" source="Iu2t4UbbvrASHuQMiMNW-63" target="Iu2t4UbbvrASHuQMiMNW-60">
          <mxGeometry relative="1" as="geometry">
            <mxPoint x="680" y="880" as="targetPoint" />
            <Array as="points">
              <mxPoint x="625" y="900" />
              <mxPoint x="700" y="900" />
            </Array>
          </mxGeometry>
        </mxCell>
        <mxCell id="Iu2t4UbbvrASHuQMiMNW-63" value="FK to Group-GroupID: GroupID" style="ellipse;whiteSpace=wrap;html=1;" vertex="1" parent="WIyWlLk6GJQsqaUBKTNV-1">
          <mxGeometry x="570" y="920" width="110" height="60" as="geometry" />
        </mxCell>
        <mxCell id="Iu2t4UbbvrASHuQMiMNW-73" style="edgeStyle=orthogonalEdgeStyle;shape=connector;rounded=0;orthogonalLoop=1;jettySize=auto;html=1;strokeColor=default;align=center;verticalAlign=middle;fontFamily=Helvetica;fontSize=11;fontColor=default;labelBackgroundColor=default;endArrow=none;endFill=0;" edge="1" parent="WIyWlLk6GJQsqaUBKTNV-1" source="Iu2t4UbbvrASHuQMiMNW-64">
          <mxGeometry relative="1" as="geometry">
            <mxPoint x="680" y="900" as="targetPoint" />
            <Array as="points">
              <mxPoint x="775" y="900" />
            </Array>
          </mxGeometry>
        </mxCell>
        <mxCell id="Iu2t4UbbvrASHuQMiMNW-64" value="FK to User-UserID:&lt;div&gt;UserID&lt;/div&gt;" style="ellipse;whiteSpace=wrap;html=1;" vertex="1" parent="WIyWlLk6GJQsqaUBKTNV-1">
          <mxGeometry x="720" y="920" width="110" height="60" as="geometry" />
        </mxCell>
        <mxCell id="Iu2t4UbbvrASHuQMiMNW-74" style="edgeStyle=orthogonalEdgeStyle;shape=connector;rounded=0;orthogonalLoop=1;jettySize=auto;html=1;strokeColor=default;align=center;verticalAlign=middle;fontFamily=Helvetica;fontSize=11;fontColor=default;labelBackgroundColor=default;endArrow=none;endFill=0;" edge="1" parent="WIyWlLk6GJQsqaUBKTNV-1" source="Iu2t4UbbvrASHuQMiMNW-65">
          <mxGeometry relative="1" as="geometry">
            <mxPoint x="770" y="900" as="targetPoint" />
            <Array as="points">
              <mxPoint x="925" y="900" />
            </Array>
          </mxGeometry>
        </mxCell>
        <mxCell id="Iu2t4UbbvrASHuQMiMNW-65" value="JoinedAt" style="ellipse;whiteSpace=wrap;html=1;" vertex="1" parent="WIyWlLk6GJQsqaUBKTNV-1">
          <mxGeometry x="870" y="920" width="110" height="60" as="geometry" />
        </mxCell>
        <mxCell id="Iu2t4UbbvrASHuQMiMNW-77" value="1" style="text;html=1;align=center;verticalAlign=middle;whiteSpace=wrap;rounded=0;fontFamily=Helvetica;fontSize=11;fontColor=default;labelBackgroundColor=default;" vertex="1" parent="WIyWlLk6GJQsqaUBKTNV-1">
          <mxGeometry x="685" y="730" width="60" height="30" as="geometry" />
        </mxCell>
        <mxCell id="Iu2t4UbbvrASHuQMiMNW-78" value="*" style="text;html=1;align=center;verticalAlign=middle;whiteSpace=wrap;rounded=0;fontFamily=Helvetica;fontSize=11;fontColor=default;labelBackgroundColor=default;" vertex="1" parent="WIyWlLk6GJQsqaUBKTNV-1">
          <mxGeometry x="670" y="440" width="60" height="30" as="geometry" />
        </mxCell>
        <mxCell id="Iu2t4UbbvrASHuQMiMNW-79" value="1" style="text;html=1;align=center;verticalAlign=middle;whiteSpace=wrap;rounded=0;fontFamily=Helvetica;fontSize=11;fontColor=default;labelBackgroundColor=default;" vertex="1" parent="WIyWlLk6GJQsqaUBKTNV-1">
          <mxGeometry x="390" y="290" width="60" height="30" as="geometry" />
        </mxCell>
        <mxCell id="Iu2t4UbbvrASHuQMiMNW-80" value="1" style="text;html=1;align=center;verticalAlign=middle;whiteSpace=wrap;rounded=0;fontFamily=Helvetica;fontSize=11;fontColor=default;labelBackgroundColor=default;" vertex="1" parent="WIyWlLk6GJQsqaUBKTNV-1">
          <mxGeometry x="545" y="290" width="60" height="30" as="geometry" />
        </mxCell>
        <mxCell id="Iu2t4UbbvrASHuQMiMNW-83" style="edgeStyle=orthogonalEdgeStyle;shape=connector;rounded=0;orthogonalLoop=1;jettySize=auto;html=1;exitX=1;exitY=0.5;exitDx=0;exitDy=0;entryX=0;entryY=0.5;entryDx=0;entryDy=0;strokeColor=default;align=center;verticalAlign=middle;fontFamily=Helvetica;fontSize=11;fontColor=default;labelBackgroundColor=default;endArrow=ERzeroToMany;endFill=0;" edge="1" parent="WIyWlLk6GJQsqaUBKTNV-1" source="Iu2t4UbbvrASHuQMiMNW-81" target="Iu2t4UbbvrASHuQMiMNW-41">
          <mxGeometry relative="1" as="geometry" />
        </mxCell>
        <mxCell id="Iu2t4UbbvrASHuQMiMNW-81" value="&lt;font style=&quot;font-size: 19px;&quot;&gt;Belongs&lt;/font&gt;" style="rhombus;whiteSpace=wrap;html=1;fontFamily=Helvetica;fontSize=11;fontColor=default;labelBackgroundColor=default;" vertex="1" parent="WIyWlLk6GJQsqaUBKTNV-1">
          <mxGeometry x="440" y="470" width="110" height="80" as="geometry" />
        </mxCell>
        <mxCell id="Iu2t4UbbvrASHuQMiMNW-84" value="M" style="text;html=1;align=center;verticalAlign=middle;resizable=0;points=[];autosize=1;strokeColor=none;fillColor=none;fontFamily=Helvetica;fontSize=11;fontColor=default;labelBackgroundColor=default;" vertex="1" parent="WIyWlLk6GJQsqaUBKTNV-1">
          <mxGeometry x="350" y="480" width="30" height="30" as="geometry" />
        </mxCell>
        <mxCell id="Iu2t4UbbvrASHuQMiMNW-85" value="N" style="text;html=1;align=center;verticalAlign=middle;resizable=0;points=[];autosize=1;strokeColor=none;fillColor=none;fontFamily=Helvetica;fontSize=11;fontColor=default;labelBackgroundColor=default;" vertex="1" parent="WIyWlLk6GJQsqaUBKTNV-1">
          <mxGeometry x="580" y="480" width="30" height="30" as="geometry" />
        </mxCell>
        <mxCell id="Iu2t4UbbvrASHuQMiMNW-86" value="1" style="text;html=1;align=center;verticalAlign=middle;resizable=0;points=[];autosize=1;strokeColor=none;fillColor=none;fontFamily=Helvetica;fontSize=11;fontColor=default;labelBackgroundColor=default;" vertex="1" parent="WIyWlLk6GJQsqaUBKTNV-1">
          <mxGeometry x="700" y="569.5" width="30" height="30" as="geometry" />
        </mxCell>
        <mxCell id="Iu2t4UbbvrASHuQMiMNW-103" style="edgeStyle=orthogonalEdgeStyle;shape=connector;rounded=0;orthogonalLoop=1;jettySize=auto;html=1;exitX=0;exitY=0.5;exitDx=0;exitDy=0;strokeColor=default;align=center;verticalAlign=middle;fontFamily=Helvetica;fontSize=11;fontColor=default;labelBackgroundColor=default;endArrow=ERmandOne;endFill=0;entryX=1;entryY=0.75;entryDx=0;entryDy=0;startArrow=none;startFill=0;" edge="1" parent="WIyWlLk6GJQsqaUBKTNV-1" source="Iu2t4UbbvrASHuQMiMNW-99" target="Iu2t4UbbvrASHuQMiMNW-0">
          <mxGeometry relative="1" as="geometry">
            <mxPoint x="390" y="359.9999999999998" as="targetPoint" />
            <Array as="points">
              <mxPoint x="400" y="410" />
              <mxPoint x="400" y="355" />
            </Array>
          </mxGeometry>
        </mxCell>
        <mxCell id="Iu2t4UbbvrASHuQMiMNW-104" style="edgeStyle=orthogonalEdgeStyle;shape=connector;rounded=0;orthogonalLoop=1;jettySize=auto;html=1;exitX=1;exitY=0.5;exitDx=0;exitDy=0;entryX=0;entryY=0.75;entryDx=0;entryDy=0;strokeColor=default;align=center;verticalAlign=middle;fontFamily=Helvetica;fontSize=11;fontColor=default;labelBackgroundColor=default;endArrow=ERmandOne;endFill=0;" edge="1" parent="WIyWlLk6GJQsqaUBKTNV-1" source="Iu2t4UbbvrASHuQMiMNW-99" target="Iu2t4UbbvrASHuQMiMNW-23">
          <mxGeometry relative="1" as="geometry">
            <Array as="points">
              <mxPoint x="590" y="410" />
              <mxPoint x="590" y="355" />
            </Array>
          </mxGeometry>
        </mxCell>
        <mxCell id="Iu2t4UbbvrASHuQMiMNW-99" value="&lt;font style=&quot;font-size: 19px;&quot;&gt;Receives&lt;/font&gt;" style="rhombus;whiteSpace=wrap;html=1;fontFamily=Helvetica;fontSize=11;fontColor=default;labelBackgroundColor=default;" vertex="1" parent="WIyWlLk6GJQsqaUBKTNV-1">
          <mxGeometry x="440" y="370" width="110" height="80" as="geometry" />
        </mxCell>
        <mxCell id="Iu2t4UbbvrASHuQMiMNW-101" value="1" style="text;html=1;align=center;verticalAlign=middle;resizable=0;points=[];autosize=1;strokeColor=none;fillColor=none;fontFamily=Helvetica;fontSize=11;fontColor=default;labelBackgroundColor=default;" vertex="1" parent="WIyWlLk6GJQsqaUBKTNV-1">
          <mxGeometry x="405" y="380" width="30" height="30" as="geometry" />
        </mxCell>
        <mxCell id="Iu2t4UbbvrASHuQMiMNW-102" value="1" style="text;html=1;align=center;verticalAlign=middle;resizable=0;points=[];autosize=1;strokeColor=none;fillColor=none;fontFamily=Helvetica;fontSize=11;fontColor=default;labelBackgroundColor=default;" vertex="1" parent="WIyWlLk6GJQsqaUBKTNV-1">
          <mxGeometry x="560" y="380" width="30" height="30" as="geometry" />
        </mxCell>
      </root>
    </mxGraphModel>
  </diagram>
</mxfile>
